<?xml version="1.0" encoding="utf-8"?>
<!-- Generator: Adobe Illustrator 22.0.0, SVG Export Plug-In . SVG Version: 6.00 Build 0)  -->
<svg version="1.1" id="图层_1" xmlns="http://www.w3.org/2000/svg" xmlns:xlink="http://www.w3.org/1999/xlink" x="0px" y="0px"
	 viewBox="0 0 1527 1527" style="enable-background:new 0 0 1527 1527;" xml:space="preserve">
<style type="text/css">
	.st0{fill:#E9FFFC;}
	.st1{fill:none;}
</style>
<path class="st0" d="M576.4,967.5V780.3l93.8,93.6L576.4,967.5z M1082.9,1099.3L857,873.9l161.4-161c41.6-41.6,64.5-96.8,64.5-155.6
	c0-121.3-98.9-219.9-220.3-219.9H510.4c-36.5,0-66.1,29.5-66.1,65.9s29.6,66,66.1,66h352.2c48.6,0,88.2,39.5,88.2,88
	c0,23.5-9.2,45.7-25.9,62.3l-161.3,161L557.1,574.5c-18.9-18.9-47.3-24.5-72-14.3s-40.8,34.2-40.8,60.9v505.5
	c0,26.7,16.1,50.8,40.8,61c8.2,3.3,16.8,5,25.3,5c17.2,0,34.1-6.7,46.7-19.3l206.5-206.2l225.9,225.5h93.4V1099.3z"/>
<line class="st1" x1="857" y1="873.9" x2="763.6" y2="967.1"/>
<line class="st1" x1="763.6" y1="780.6" x2="670.2" y2="873.9"/>
</svg>
