<svg x="0" y="0" width="48" height="48" version="1.1" xmlns="http://www.w3.org/2000/svg" xmlns:xlink="http://www.w3.org/1999/xlink"><defs><linearGradient x1="5.28938" y1="5.69514" x2="43.41773" y2="39.0978" gradientUnits="userSpaceOnUse" id="color-1"><stop offset="0" stop-color="#000000" stop-opacity="0"></stop><stop offset="1" stop-color="#000000" stop-opacity="0"></stop></linearGradient><filter id="dropshadow"><feColorMatrix type="matrix" values="0 0 0 0 .05  0 0 0 0 .15  0 0 0 0 .1  0 0 0 .8 0"></feColorMatrix> <feOffset dx="0" dy="1"></feOffset> <feGaussianBlur stdDeviation="1"></feGaussianBlur> <feComposite in="SourceGraphic"></feComposite></filter></defs><g fill="none" stroke="none" stroke-width="none" stroke-linecap="butt" stroke-linejoin="miter" stroke-miterlimit="none" stroke-dasharray="" stroke-dashoffset="0" font-family="none" font-weight="normal" font-size="none" text-anchor="start" mix-blend-mode="normal"><g id="Layer_1" fill="#000000" stroke="none" stroke-width="1" stroke-miterlimit="4" font-family="&quot;Open Sans&quot;, sans-serif" font-size="14"><g></g></g><path d="M3,24c0,-11.59798 9.40202,-21 21,-21c11.59798,0 21,9.40202 21,21c0,11.59798 -9.40202,21 -21,21c-11.59798,0 -21,-9.40202 -21,-21z" fill="#fdd835" stroke-width="1" stroke-miterlimit="10" font-family="sans-serif" font-size="12" filter="url(#dropshadow)"></path><path d="M19.11853,23.62371l-0.00001,0c-0.13193,0.48232 -0.21988,0.98167 -0.21988,1.50655l-0.7071,-0.7071c0,-0.27299 0.02379,-0.53908 0.06519,-0.79945c0,0 -12.18932,0 -12.18932,0c-0.03972,0.49793 -0.07093,0.99869 -0.07093,1.50655c0,4.9487 1.93814,9.43465 5.09115,12.76039c0.17905,0.16976 0.36147,0.336 0.54715,0.49863l9.09793,-9.09511c-0.05933,-0.05456 -0.1175,-0.11034 -0.17447,-0.16731l-0.70709,-0.70709c0,0 -0.00001,-0.00001 -0.00001,-0.00001c0,0 0.00001,0.00001 0.00001,0.00001c0.11803,0.11803 0.24122,0.23097 0.3692,0.33849c0.19111,0.16055 0.39289,0.30898 0.60411,0.44416l0.70711,0.70711l-9.18969,9.18685c-0.31113,-0.27251 -0.61312,-0.55518 -0.90544,-0.8475l-0.7071,-0.7071c-3.35828,-3.35827 -5.43996,-7.98994 -5.43996,-13.11862c0,-0.50786 0.03121,-1.00862 0.07093,-1.50655l13.05112,0z M37.07233,39.0978l0,0c0,0 0,0 -0.00001,0l-0.03235,-0.03235l-9.15733,-9.1545l-0.7071,-0.7071l0.03236,0.03235c0,0 -0.03236,-0.03236 -0.03236,-0.03236c1.5789,-1.01146 2.6315,-2.76485 2.6315,-4.77926c0,-0.5263 -0.08653,-1.02423 -0.21988,-1.50655l13.05112,0l0.7071,0.7071c0.04114,0.49651 0.07093,0.99869 0.07235,1.50655l-0.7071,-0.7071c-0.00075,-0.26807 -0.0094,-0.53455 -0.02346,-0.79945l-12.39291,0c0.13335,0.48232 0.21988,0.98025 0.21988,1.50655c0,2.01436 -1.05254,3.76771 -2.63137,4.77918l8.48246,8.47984c3.88413,-3.40181 6.34539,-8.39102 6.34539,-13.96612l0.7071,0.7071c0,5.5751 -2.46127,10.56432 -6.34539,13.96612z M27.63942,19.95741l5.36649,-11.58644c-0.16785,-0.08633 -0.33762,-0.16992 -0.50999,-0.24972c-5.05731,-2.3421 -10.61822,-2.20592 -15.33932,-0.10781l-0.70709,-0.70709l0,-0.00001c0,0 0,0 0,0l0.70709,0.70709l4.13545,11.27481c1.52056,-0.82029 3.38673,-0.94614 5.07489,-0.16497l0.00001,0.00001c0.47522,0.21988 0.89371,0.50928 1.27246,0.83413l0.7071,0.7071c-0.37877,-0.32486 -0.79725,-0.61425 -1.27248,-0.83414l-0.00001,-0.00001c-1.82716,-0.84548 -3.86284,-0.62843 -5.44315,0.38161l-0.00002,-0.00002l0.00001,0.00002l-0.7071,-0.7071l-4.47425,-12.19852l-0.00001,-0.00001c0,0 0,0 0,0l0,-0.00001l0.00001,0.00001c4.7211,-2.09811 10.28201,-2.2343 15.33931,0.10781c0.45963,0.21279 0.90081,0.45253 1.33632,0.69937l0.00001,0.00001l0,-0.00001l0.7071,0.7071l-5.48573,11.84389z M26.74003,24.38911c0,-0.62447 -0.19634,-1.20307 -0.53065,-1.67744c-0.47438,-0.33433 -1.05299,-0.53068 -1.67748,-0.53068c-1.61004,0 -2.91522,1.30518 -2.91522,2.91522c0,0.62448 0.19635,1.2031 0.53068,1.67748c0.47438,0.33431 1.05298,0.53065 1.67744,0.53065c1.61004,0 2.91522,-1.30518 2.91522,-2.91522l0.7071,0.7071c0,1.61004 -1.30518,2.91522 -2.91522,2.91522c-0.80503,0 -1.53383,-0.32629 -2.06138,-0.85384l-0.7071,-0.7071c0.00152,0.00152 0.00304,0.00303 0.00456,0.00455l-0.00456,-0.00456c-0.52755,-0.52756 -0.85384,-1.25637 -0.85384,-2.06138c0,-1.61004 1.30518,-2.91522 2.91522,-2.91522c0.80503,0 1.53383,0.32629 2.06138,0.85384c0,0 0.00456,0.00456 0.00456,0.00456c-0.00151,-0.00152 -0.00303,-0.00304 -0.00455,-0.00456l0.7071,0.7071c0.52755,0.52755 0.85384,1.25635 0.85384,2.06138z" fill="url(#color-1)" stroke-width="1" stroke-miterlimit="10" font-family="sans-serif" font-size="12"></path><path d="M42.71062,24.42458c0,5.5751 -2.46127,10.56431 -6.3454,13.96612l-9.18969,-9.18685c1.5789,-1.01146 2.6315,-2.76485 2.6315,-4.77926c0,-0.5263 -0.08653,-1.02423 -0.21988,-1.50655l13.05112,0c0.04114,0.49651 0.07093,0.99869 0.07235,1.50655z M20.82446,29.20242l-9.18969,9.18685c-3.88555,-3.40322 -6.3454,-8.39102 -6.3454,-13.96612c0,-0.50786 0.03121,-1.00862 0.07093,-1.50655l13.05112,0c-0.13193,0.48232 -0.21988,0.98167 -0.21988,1.50655c0,2.01441 1.0526,3.7678 2.63292,4.77926z M20.92377,19.50487l-4.47426,-12.19854c4.7211,-2.09811 10.28201,-2.23429 15.33932,0.10781c0.45963,0.21279 0.90081,0.45253 1.33632,0.69937l-5.48573,11.84389c-0.37877,-0.32486 -0.79725,-0.61425 -1.27248,-0.83414c-1.82716,-0.84549 -3.86285,-0.62844 -5.44317,0.3816z M20.90958,24.38911c0,-1.61003 1.30519,-2.91522 2.91522,-2.91522c1.61003,0 2.91522,1.30519 2.91522,2.91522c0,1.61003 -1.30519,2.91522 -2.91522,2.91522c-1.61003,0 -2.91522,-1.30519 -2.91522,-2.91522z" fill="#757575" stroke-width="0" stroke-miterlimit="10" font-family="sans-serif" font-size="12"></path></g></svg>