<svg x="0" y="0" width="48" height="48" version="1.1" xmlns="http://www.w3.org/2000/svg" xmlns:xlink="http://www.w3.org/1999/xlink"><defs><linearGradient x1="7.62344" y1="8.54548" x2="61.71506" y2="58.52693" gradientUnits="userSpaceOnUse" id="color-1"><stop offset="0" stop-color="#000000" stop-opacity="0.41"></stop><stop offset="1" stop-color="#000000" stop-opacity="0"></stop></linearGradient><filter id="dropshadow"><feColorMatrix type="matrix" values="0 0 0 0 .05  0 0 0 0 .15  0 0 0 0 .1  0 0 0 .8 0"></feColorMatrix> <feOffset dx="0" dy="1"></feOffset> <feGaussianBlur stdDeviation="1"></feGaussianBlur> <feComposite in="SourceGraphic"></feComposite></filter></defs><g fill="none" stroke="none" stroke-width="none" stroke-linecap="butt" stroke-linejoin="miter" stroke-miterlimit="none" stroke-dasharray="" stroke-dashoffset="0" font-family="none" font-weight="normal" font-size="none" text-anchor="start" mix-blend-mode="normal"><g fill="#000000" stroke="none" stroke-width="1" stroke-miterlimit="4" font-family="&quot;Open Sans&quot;, sans-serif" font-size="14"></g><g id="svg3466" fill="#000000" stroke="none" stroke-width="1" stroke-miterlimit="4" font-family="&quot;Open Sans&quot;, sans-serif" font-size="14"></g><g id="Layer_1" fill="#000000" stroke="none" stroke-width="1" stroke-miterlimit="4" font-family="&quot;Open Sans&quot;, sans-serif" font-size="14"><g></g></g><path d="M3,24c0,-11.59798 9.40202,-21 21,-21c11.59798,0 21,9.40202 21,21c0,11.59798 -9.40202,21 -21,21c-11.59798,0 -21,-9.40202 -21,-21z" fill="#ffeb3b" stroke-width="1" stroke-miterlimit="10" font-family="sans-serif" font-size="12" filter="url(#dropshadow)"></path><path d="M20.88071,44.76992l-8.52585,-8.52585c-2.92085,-2.92084 -4.7314,-6.94923 -4.7314,-11.40989l-0.00001,-0.00001c0,-0.4417 0.02715,-0.87725 0.0617,-1.31032l11.3512,0l2.46666,2.46666c-0.18761,-0.35389 -0.29388,-0.75751 -0.29388,-1.18595c0,-1.15391 0.7708,-2.12777 1.8256,-2.43479l-1.81326,-1.81326l-3.89149,-10.60967l10.1347,10.1347l0,-0.00001l-10.13471,-10.13471c4.10617,-1.82483 8.94276,-1.94327 13.34136,0.09377c0.39976,0.18508 0.78348,0.3936 1.16227,0.60828l13.16562,13.16562c0.00053,0.06178 0.0008,0.12362 0.0008,0.18552c0,11.59798 -9.40202,21 -21,21c-1.05994,0 -2.10154,-0.07853 -3.11929,-0.23008z" fill="url(#color-1)" stroke-width="1" stroke-miterlimit="10" font-family="sans-serif" font-size="12"></path><path d="M21.13508,28.99092l-7.99272,7.99026c-3.37945,-2.95995 -5.5189,-7.29808 -5.5189,-12.14701c0,-0.44171 0.02714,-0.87725 0.06169,-1.31032l11.3512,0c-0.11475,0.4195 -0.19124,0.85381 -0.19124,1.31032c0,1.75203 0.9155,3.27704 2.28998,4.15676z M40.17054,24.8354c0,4.84894 -2.14069,9.1883 -5.5189,12.14701l-7.99272,-7.99026c1.37325,-0.87972 2.28875,-2.40473 2.28875,-4.15676c0,-0.45775 -0.07526,-0.89082 -0.19124,-1.31032l11.3512,0c0.03578,0.43184 0.06169,0.86861 0.06293,1.31032z M21.22144,20.55649l-3.89149,-10.60967c4.10617,-1.82483 8.94277,-1.94328 13.34136,0.09377c0.39976,0.18507 0.78348,0.39359 1.16226,0.60828l-4.7712,10.30121c-0.32943,-0.28255 -0.69341,-0.53425 -1.10674,-0.72549c-1.58917,-0.73536 -3.35971,-0.54658 -4.73419,0.3319z M21.20911,24.80455c0,-1.40032 1.13519,-2.53551 2.53551,-2.53551c1.40032,0 2.53551,1.13519 2.53551,2.53551c0,1.40032 -1.13519,2.53551 -2.53551,2.53551c-1.40032,0 -2.53551,-1.13519 -2.53551,-2.53551z" fill="#000000" stroke-width="0" stroke-miterlimit="10" font-family="sans-serif" font-size="12"></path></g></svg>