<svg x="0" y="0" width="48" height="48" version="1.1" xmlns="http://www.w3.org/2000/svg" xmlns:xlink="http://www.w3.org/1999/xlink"><defs><linearGradient x1="6.84856" y1="7.86846" x2="63.5158" y2="60.22982" gradientUnits="userSpaceOnUse" id="color-1"><stop offset="0" stop-color="#000000" stop-opacity="0"></stop><stop offset="1" stop-color="#000000" stop-opacity="0"></stop></linearGradient><filter id="dropshadow"><feColorMatrix type="matrix" values="0 0 0 0 .05  0 0 0 0 .15  0 0 0 0 .1  0 0 0 .8 0"></feColorMatrix> <feOffset dx="0" dy="1"></feOffset> <feGaussianBlur stdDeviation="1"></feGaussianBlur> <feComposite in="SourceGraphic"></feComposite></filter></defs><g fill="none" stroke="none" stroke-width="none" stroke-linecap="butt" stroke-linejoin="miter" stroke-miterlimit="none" stroke-dasharray="" stroke-dashoffset="0" font-family="none" font-weight="normal" font-size="none" text-anchor="start" mix-blend-mode="normal"><g fill="#000000" stroke="none" stroke-width="1" stroke-miterlimit="4" font-family="&quot;Open Sans&quot;, sans-serif" font-size="14"></g><g id="svg3466" fill="#000000" stroke="none" stroke-width="1" stroke-miterlimit="4" font-family="&quot;Open Sans&quot;, sans-serif" font-size="14"></g><g id="Layer_1" fill="#000000" stroke="none" stroke-width="1" stroke-miterlimit="4" font-family="&quot;Open Sans&quot;, sans-serif" font-size="14"><g></g></g><path d="M3,24c0,-11.59798 9.40202,-21 21,-21c11.59798,0 21,9.40202 21,21c0,11.59798 -9.40202,21 -21,21c-11.59798,0 -21,-9.40202 -21,-21z" fill="#ffeb3b" stroke-width="1" stroke-miterlimit="10" font-family="sans-serif" font-size="12" filter="url(#dropshadow)"></path><path d="M19.41799,44.49865l-7.61272,-7.61272c-3.05993,-3.05992 -4.95669,-7.28012 -4.95669,-11.95318l-0.00001,-0.00001c0,-0.46273 0.02844,-0.91902 0.06463,-1.37271l11.89169,0l2.58411,2.58411c-0.19655,-0.37074 -0.30787,-0.79358 -0.30787,-1.24242c0,-1.20885 0.8075,-2.22908 1.91253,-2.55072l-1.8996,-1.8996l-4.07679,-11.11486l10.61728,10.61728l0,-0.00001l-10.61728,-10.61728c4.30169,-1.91172 9.36858,-2.0358 13.97662,0.09824c0.41879,0.19389 0.82078,0.41234 1.21761,0.63724l12.75638,12.75638c0.02133,0.38783 0.03213,0.77847 0.03213,1.17162c0,11.59798 -9.40202,21 -21,21c-1.57377,0 -3.10711,-0.17312 -4.58201,-0.50135z" fill="url(#color-1)" stroke-width="1" stroke-miterlimit="10" font-family="sans-serif" font-size="12"></path><path d="M21.00357,29.28742l-8.3733,8.37072c-3.54036,-3.10089 -5.78169,-7.64558 -5.78169,-12.7254c0,-0.46274 0.02844,-0.91902 0.06463,-1.37272l11.89169,0c-0.12021,0.43948 -0.20035,0.89446 -0.20035,1.37272c0,1.83546 0.95909,3.43308 2.39902,4.35469z M40.94542,24.93403c0,5.07982 -2.24262,9.62581 -5.78169,12.7254l-8.3733,-8.37072c1.43864,-0.92161 2.39773,-2.51923 2.39773,-4.35469c0,-0.47955 -0.07885,-0.93324 -0.20035,-1.37272l11.89169,0c0.03748,0.4524 0.06463,0.90997 0.06592,1.37272z M21.09405,20.45138l-4.07678,-11.11486c4.30169,-1.91172 9.36859,-2.03581 13.97662,0.09824c0.41879,0.19389 0.82079,0.41233 1.21761,0.63724l-4.99839,10.79171c-0.34512,-0.296 -0.72643,-0.55969 -1.15944,-0.76003c-1.66484,-0.77037 -3.51968,-0.57261 -4.95961,0.3477z M21.08112,24.90171c0,-1.467 1.18924,-2.65624 2.65624,-2.65624c1.467,0 2.65624,1.18924 2.65624,2.65624c0,1.467 -1.18924,2.65624 -2.65624,2.65624c-1.467,0 -2.65624,-1.18924 -2.65624,-2.65624z" fill="#616161" stroke-width="0" stroke-miterlimit="10" font-family="sans-serif" font-size="12"></path></g></svg>