<?xml version="1.0" encoding="utf-8"?>
<!-- Generator: Adobe Illustrator 23.0.0, SVG Export Plug-In . SVG Version: 6.00 Build 0)  -->
<svg version="1.1" id="图层_1" xmlns="http://www.w3.org/2000/svg" xmlns:xlink="http://www.w3.org/1999/xlink" x="0px" y="0px"
	 viewBox="0 0 564 527.6" style="enable-background:new 0 0 564 527.6;" xml:space="preserve">
<style type="text/css">
	.st0{fill:none;stroke:#FFFFFF;stroke-width:18;stroke-miterlimit:10;}
	.st1{fill:none;stroke:#000000;stroke-width:18;stroke-miterlimit:10;}
	.st2{fill:#FFFFFF;}
</style>
<title>原图</title>
<circle class="st0" cx="282" cy="282" r="42.1"/>
<path class="st1" d="M314.6,356.9"/>
<path class="st1" d="M322.2,353.1"/>
<path class="st0" d="M363.7,282c0,29.2-15.6,56.2-41,70.8"/>
<path class="st1" d="M363.7,282"/>
<path class="st0" d="M241.3,211.3c25.3-14.5,56.4-14.5,81.7,0.1"/>
<path class="st1" d="M201.1,271.2"/>
<path class="st1" d="M201.1,271.2"/>
<path class="st1" d="M200.4,280.4"/>
<path class="st0" d="M241,352.7c-25.2-14.6-40.7-41.5-40.7-70.6"/>
<path class="st1" d="M242,353.2"/>
<path class="st1" d="M242.5,353.5"/>
<path class="st1" d="M150.2,521.1"/>
<path class="st1" d="M408.8,523.8"/>
<path class="st1" d="M417.4,519.1"/>
<path class="st1" d="M417.7,518.9"/>
<path class="st0" d="M555,282c0,97.7-52.3,188-137,236.7"/>
<path class="st1" d="M555,282"/>
<path class="st1" d="M555,274.4"/>
<path class="st1" d="M419.1,45.9"/>
<path class="st0" d="M146,45.4c84.5-48.7,188.6-48.5,273,0.5"/>
<path class="st1" d="M9.6,263.7"/>
<path class="st1" d="M9.4,267.7"/>
<path class="st1" d="M9,278.1"/>
<path class="st1" d="M9,281.4"/>
<path class="st1" d="M9,281.9"/>
<path class="st0" d="M145.1,518.2C60.9,469.3,9.1,379.4,9,282.1"/>
<line class="st0" x1="418.1" y1="518.7" x2="322.7" y2="352.8"/>
<line class="st0" x1="145.9" y1="45.4" x2="241.3" y2="211.3"/>
<line class="st0" x1="145.1" y1="518.2" x2="241.1" y2="352.7"/>
<line class="st0" x1="419" y1="45.8" x2="323" y2="211.4"/>
<path class="st1" d="M9,280.5"/>
<path class="st1" d="M9,280.7"/>
<line class="st0" x1="200.4" y1="282" x2="9" y2="282"/>
<path class="st1" d="M363.7,282"/>
<line class="st0" x1="555" y1="282" x2="363.7" y2="282"/>
<circle class="st2" cx="9" cy="282.1" r="9"/>
<circle class="st2" cx="200.4" cy="282" r="9"/>
<circle class="st2" cx="363.7" cy="282.1" r="9"/>
<circle class="st2" cx="555" cy="282" r="9"/>
<circle class="st2" cx="322.7" cy="352.8" r="9"/>
<circle class="st2" cx="418.3" cy="518.6" r="9"/>
<circle class="st2" cx="145.9" cy="45.4" r="9"/>
<circle class="st2" cx="241.5" cy="211.2" r="9"/>
<circle class="st2" cx="418.9" cy="45.9" r="9"/>
<circle class="st2" cx="323.1" cy="211.5" r="9"/>
<circle class="st2" cx="241.1" cy="352.7" r="9"/>
<circle class="st2" cx="145.3" cy="518.3" r="9"/>
</svg>
