<svg x="0" y="0" width="48" height="48" version="1.1" xmlns="http://www.w3.org/2000/svg" xmlns:xlink="http://www.w3.org/1999/xlink"><defs><linearGradient x1="5.28938" y1="7.65223" x2="85.13703" y2="82.77418" gradientUnits="userSpaceOnUse" id="color-1"><stop offset="0" stop-color="#000000" stop-opacity="0.28"></stop><stop offset="1" stop-color="#000000" stop-opacity="0"></stop></linearGradient><filter id="dropshadow"><feColorMatrix type="matrix" values="0 0 0 0 .05  0 0 0 0 .15  0 0 0 0 .1  0 0 0 .8 0"></feColorMatrix> <feOffset dx="0" dy="1"></feOffset> <feGaussianBlur stdDeviation="1"></feGaussianBlur> <feComposite in="SourceGraphic"></feComposite></filter></defs><g fill="none" stroke="none" stroke-width="none" stroke-linecap="butt" stroke-linejoin="miter" stroke-miterlimit="none" stroke-dasharray="" stroke-dashoffset="0" font-family="none" font-weight="normal" font-size="none" text-anchor="start" mix-blend-mode="normal"><g id="Layer_1" fill="#000000" stroke="none" stroke-width="1" stroke-miterlimit="4" font-family="&quot;Open Sans&quot;, sans-serif" font-size="14"><g></g></g><path d="M5,45c-1.10457,0 -2,-0.89543 -2,-2l0,-38c0,-1.10457 0.89543,-2 2,-2l38,0c1.10457,0 2,0.89543 2,2l0,38c0,1.10457 -0.89543,2 -2,2z" fill="#fdd835" stroke-width="1" stroke-miterlimit="10" font-family="sans-serif" font-size="12" filter="url(#dropshadow)"></path><path d="M16.23048,45l-5.50114,-5.50114c-3.35828,-3.35827 -5.43996,-7.98994 -5.43996,-13.11862c0,-0.50786 0.03121,-1.00862 0.07093,-1.50655l13.05112,0l2.83602,2.83602c-0.2157,-0.40687 -0.33787,-0.87093 -0.33787,-1.36352c0,-1.32671 0.88624,-2.44642 2.099,-2.79942l-2.08482,-2.08482l-4.47425,-12.19852l-0.00001,-0.00001c0,0 0,0 0.00001,0c4.7211,-2.09811 10.28201,-2.2343 15.33931,0.10781c0.45963,0.21279 0.90081,0.45253 1.33632,0.69937l0.00001,0.00001l0,-0.00001l11.87485,11.87485l0,21.05455c0,1.10457 -0.89543,2 -2,2z" fill="url(#color-1)" stroke-width="1" stroke-miterlimit="10" font-family="sans-serif" font-size="12"></path><path d="M42.71062,26.38166c0,5.5751 -2.46127,10.56431 -6.3454,13.96612l-9.18969,-9.18685c1.5789,-1.01146 2.6315,-2.76485 2.6315,-4.77926c0,-0.5263 -0.08653,-1.02423 -0.21988,-1.50655l13.05112,0c0.04114,0.49651 0.07093,0.99869 0.07235,1.50655z M20.82446,31.1595l-9.18969,9.18685c-3.88555,-3.40322 -6.3454,-8.39102 -6.3454,-13.96612c0,-0.50786 0.03121,-1.00862 0.07093,-1.50655l13.05112,0c-0.13193,0.48232 -0.21988,0.98167 -0.21988,1.50655c0,2.01441 1.0526,3.7678 2.63292,4.77926z M20.92377,21.46196l-4.47426,-12.19854c4.7211,-2.09811 10.28201,-2.23429 15.33932,0.10781c0.45963,0.21279 0.90081,0.45253 1.33632,0.69937l-5.48573,11.84389c-0.37877,-0.32486 -0.79725,-0.61425 -1.27248,-0.83414c-1.82716,-0.84549 -3.86285,-0.62844 -5.44317,0.3816z M20.90958,26.3462c0,-1.61003 1.30519,-2.91522 2.91522,-2.91522c1.61003,0 2.91522,1.30519 2.91522,2.91522c0,1.61003 -1.30519,2.91522 -2.91522,2.91522c-1.61003,0 -2.91522,-1.30519 -2.91522,-2.91522z" fill="#757575" stroke-width="0" stroke-miterlimit="10" font-family="sans-serif" font-size="12"></path></g></svg>